<?xml version="1.0" standalone="no"?>
<!DOCTYPE svg PUBLIC "-//W3C//DTD SVG 20010904//EN"
 "http://www.w3.org/TR/2001/REC-SVG-20010904/DTD/svg10.dtd">
<svg version="1.0" xmlns="http://www.w3.org/2000/svg"
 width="500.000000pt" height="500.000000pt" viewBox="0 0 500.000000 500.000000"
 preserveAspectRatio="xMidYMid meet">

<g transform="translate(0.000000,500.000000) scale(0.100000,-0.100000)"
fill="#000000" stroke="none">
<path d="M326 4815 c-74 -26 -125 -81 -146 -154 -14 -50 -14 -4272 0 -4322 16
-56 50 -100 104 -134 l49 -30 2167 0 2167 0 49 30 c30 19 60 49 79 79 l30 49
0 2166 c0 2095 -1 2167 -19 2201 -26 49 -55 79 -101 103 l-40 22 -2150 2
c-1828 2 -2156 0 -2189 -12z m2653 -520 c30 -8 58 -20 63 -27 13 -19 0 -115
-22 -165 -46 -103 -183 -194 -355 -233 -95 -22 -95 -23 -105 -59 -8 -31 -30
-235 -30 -281 0 -8 11 9 25 38 29 63 113 148 179 180 72 36 153 45 236 26 38
-8 73 -20 76 -26 15 -23 3 -114 -22 -168 -49 -108 -170 -190 -341 -231 -49
-12 -93 -23 -99 -24 -12 -4 -30 -90 -39 -197 l-6 -67 67 34 c193 97 446 88
813 -30 132 -43 144 -45 257 -45 137 0 168 -11 218 -73 l31 -39 3 -781 c2
-430 0 -811 -3 -845 -6 -54 -12 -70 -42 -103 -21 -23 -50 -43 -72 -49 -20 -5
-274 -19 -566 -30 -291 -11 -570 -22 -620 -25 -85 -5 -261 0 -885 26 -578 23
-577 23 -607 45 -15 12 -38 36 -50 54 l-23 33 0 837 0 837 23 34 c12 19 42 44
67 57 38 19 60 22 160 22 104 0 126 3 206 31 49 16 150 46 224 66 114 29 157
36 276 40 187 7 295 -17 412 -91 34 -21 41 -23 46 -10 10 27 6 98 -8 123 -11
21 -21 23 -94 27 -87 4 -180 30 -241 68 -91 58 -211 234 -197 289 4 16 22 31
57 48 77 35 192 34 271 -4 62 -30 127 -90 168 -154 l27 -43 7 62 c10 95 7 205
-6 233 -10 23 -16 25 -78 25 -80 0 -166 21 -232 57 -99 54 -218 212 -218 288
0 27 6 35 48 56 67 34 203 34 279 0 74 -33 155 -122 202 -221 l38 -80 11 37
c6 21 13 72 15 114 5 91 32 146 110 222 100 98 213 128 346 92z"/>
<path d="M2787 4230 c-54 -16 -146 -100 -178 -162 -10 -21 -19 -40 -19 -44 0
-4 26 18 58 48 106 100 181 140 196 103 9 -24 -1 -38 -50 -69 -60 -38 -145
-116 -167 -155 -10 -17 -17 -31 -15 -31 18 0 159 45 192 62 97 49 158 122 172
204 5 37 4 42 -17 47 -33 9 -138 7 -172 -3z"/>
<path d="M2047 4088 c-21 -6 -41 -16 -44 -24 -6 -15 37 -96 71 -136 69 -78
154 -119 276 -133 l55 -6 -45 42 c-25 23 -82 64 -128 92 -65 40 -82 55 -80 71
2 12 11 22 22 24 24 5 53 -10 150 -76 77 -53 78 -53 60 -22 -36 62 -103 127
-151 148 -60 25 -137 34 -186 20z"/>
<path d="M2783 3701 c-71 -33 -161 -125 -178 -181 -6 -21 1 -16 46 26 72 67
164 128 184 121 8 -4 15 -17 15 -29 0 -17 -17 -34 -61 -63 -59 -39 -169 -147
-169 -166 0 -15 26 -11 107 16 94 32 174 83 211 134 34 47 58 129 43 144 -5 5
-43 12 -83 14 -58 3 -82 0 -115 -16z"/>
<path d="M2043 3563 c-41 -8 -45 -26 -17 -79 62 -119 181 -199 311 -211 l68
-6 -38 41 c-22 22 -76 62 -122 88 -46 27 -86 54 -89 61 -2 6 1 19 9 29 13 18
15 18 62 -5 26 -12 76 -43 111 -68 l64 -45 -17 32 c-28 54 -97 122 -150 146
-48 23 -127 30 -192 17z"/>
<path d="M1975 3060 c-139 -16 -289 -55 -505 -132 l-95 -34 -3 -722 c-1 -397
-1 -722 1 -722 2 0 37 11 78 26 163 56 376 102 529 114 167 13 279 -12 399
-90 l61 -40 0 740 0 739 -42 29 c-63 43 -97 59 -163 75 -80 20 -175 26 -260
17z"/>
<path d="M2830 3059 c-84 -10 -165 -39 -234 -83 l-56 -36 0 -741 0 -741 23 16
c57 42 128 78 187 97 150 48 478 8 780 -95 41 -14 76 -26 78 -26 1 0 2 324 2
720 l0 720 -37 15 c-89 37 -307 105 -413 128 -134 29 -239 38 -330 26z"/>
<path d="M1175 2895 l-25 -24 0 -801 0 -801 25 -24 c14 -15 36 -25 52 -25 15
0 305 -12 643 -26 l615 -26 645 27 c379 16 653 31 665 37 11 6 23 16 27 22 4
6 8 374 8 818 l0 807 -26 20 c-15 12 -41 21 -60 21 l-34 0 0 -794 c0 -738 -1
-796 -17 -812 -16 -15 -34 -16 -168 -10 -556 24 -804 18 -962 -22 -65 -17 -72
-17 -143 0 -159 37 -270 42 -703 28 -324 -10 -410 -10 -422 0 -13 11 -15 114
-15 811 l0 799 -40 0 c-30 0 -47 -7 -65 -25z"/>
<path d="M1955 1489 c-94 -10 -214 -33 -305 -59 l-65 -18 330 2 c182 0 352 -3
379 -7 43 -8 48 -7 38 6 -20 24 -123 65 -192 76 -72 12 -71 12 -185 0z"/>
<path d="M2830 1489 c-56 -10 -141 -45 -175 -73 -19 -16 -17 -16 30 -9 28 5
199 7 380 7 l330 -2 -65 19 c-154 46 -403 75 -500 58z"/>
</g>
</svg>
